<?xml version="1.0" encoding="UTF-8"?>
<!DOCTYPE svg PUBLIC "-//W3C//DTD SVG 1.1//EN" "http://www.w3.org/Graphics/SVG/1.1/DTD/svg11.dtd">
<!-- Creator: CorelDRAW 2020 (64-Bit) -->
<svg xmlns="http://www.w3.org/2000/svg" xml:space="preserve" width="2.1337in" height="2.13341in" version="1.1" style="shape-rendering:geometricPrecision; text-rendering:geometricPrecision; image-rendering:optimizeQuality; fill-rule:evenodd; clip-rule:evenodd"
viewBox="0 0 517.1 517.03"
 xmlns:xlink="http://www.w3.org/1999/xlink"
 xmlns:xodm="http://www.corel.com/coreldraw/odm/2003">
 <defs>
  <style type="text/css">
   <![CDATA[
    .fil0 {fill:#CCCCCC}
   ]]>
  </style>
 </defs>
 <g id="Layer_x0020_1">
  <metadata id="CorelCorpID_0Corel-Layer"/>
  <g id="_2253842778304">
   <path class="fil0" d="M102.8 315.8c16.48,0 33,-0.27 49.49,0.62 4.8,0.26 10.53,1.29 15.64,1.27 4.99,-0.02 12.81,-0.48 17.48,0.05l14.02 2.9c44.14,8.15 43.12,48.77 67.96,60.46 3.18,1.5 0.76,-0.41 2.54,1.84 4.88,6.14 4.82,4.07 15,6.92 3.5,0.98 6.37,6.75 27.71,6.75l150.34 0c5.67,0 10.64,-0.99 13.9,-3.64 0.96,-0.79 1.31,-1.31 2.25,-2.14 9.03,-8.02 2.89,-5.28 7.75,-9.79 5.56,-5.16 4.38,-10.3 6.61,-15.32 1.04,-2.35 2.7,-2.68 4.18,-5.22 2.14,-3.69 8.8,-21.13 -0,-25.5 -5.96,-2.96 -94.19,-1.66 -104.83,-1.66 -14.6,0 -59.31,0.77 -70.43,-0.98 -4.85,-0.76 -3.16,-0.82 -6.54,-2.23 -17.76,-7.44 -9.6,-0.99 -23.1,-11.98l-5.1 -3.67c-2.59,-2.06 -2.14,-2.24 -4.28,-4.49l-4.77 -4.63c-24.4,-27.02 -34.02,-39.99 -66.51,-48.76 -1.24,-0.55 -1.36,-0.78 -3.02,-1.36 -1.57,-0.55 -1.84,-0.58 -3.47,-0.92 -15.69,-3.29 -93.42,1.15 -107.03,-0.72l-24.14 -0c-7.2,1.01 -40.55,0.08 -52.48,0.14 -28.2,0.16 -22.09,25.59 -19.74,41.1 0.78,5.14 1.48,10.33 3.58,13.96 2.22,3.84 6.74,5.01 11.22,6.32 8.58,2.51 72.45,0.67 85.77,0.67z"/>
   <path class="fil0" d="M23.95 183.61l147.76 0.63c3.22,0 6.86,-0.16 10.03,-0.01 54.17,11.51 39.52,16.25 69.99,50.28 3.5,3.91 3.22,6.43 9.01,11.03 1.97,1.56 3.2,3.21 5.06,4.96 4.92,4.62 9.23,4.41 14.61,6.06 7.39,2.27 4.47,7.25 32.85,7.24l160.36 0c11.7,0 27.84,2.35 34.09,-6 6.83,-9.1 10.36,1.94 9.13,-29.72 -0.4,-10.28 -3.95,-10.84 -5.86,-14.19 -2.35,-4.13 -4.8,-9.34 -9.7,-10.97 -9.59,-3.21 -25.78,-1.77 -38.32,-1.77 -23.47,0 -129.42,0.89 -139.5,-0.81 -9.88,-1.67 -9.28,0.28 -15.06,-4.99 -2.26,-2.06 -3.77,-2.03 -6.8,-3.22 -4.8,-1.89 -7.92,-6 -11.51,-8.54 -3.29,-2.33 -2.89,-0.86 -5.41,-4.62 -2.62,-3.9 -4.5,-4.42 -9.27,-10.78 -20.12,-26.78 -54.66,-38.98 -86.02,-44.9 -2.34,-0.44 -5.55,-1.48 -8.33,-1.69l-19.39 -0.65c-14.71,0 -106.45,-0.74 -110.36,0.52 -2.64,0.85 -4.41,1.81 -7.41,2.62 -12.67,3.41 -44.28,57.58 -19.97,59.52z"/>
   <path class="fil0" d="M391.09 481.97c0.46,-0.46 17.71,-10.71 -0.59,-14.11 -31.98,-5.94 -54.5,5.57 -89.54,-10.06 -20.43,-9.12 -35.41,-39.74 -46.95,-53.29 -3.02,-2.7 -15.71,-10.45 -19.41,-11.29l-19.21 -3.34c-30.82,-6.17 -124.86,-2.39 -158.32,-2.04 -14.52,-0.08 -18.2,8.77 -15.94,12.76 28.33,49.86 108.97,108.2 163.2,113.12 41.79,6.64 148.98,6.54 186.76,-31.75z"/>
   <path class="fil0" d="M139.76 50.17c32.68,0 44.56,-2.79 73.9,10.67 30.06,13.79 37.33,52.16 61.76,61.66 7.25,2.82 5.11,4.03 15.56,6.36 4.33,0.97 9,0.78 13.07,1.34 9.8,1.34 19.44,-0.48 28.64,-0.46 38.63,0.09 77.26,0 115.89,0 10.14,0 27.45,1.8 26.53,-8.31 -0.23,-2.52 -0.41,-4.44 -0.99,-6.59 -8.48,-31.48 -81.54,-76.89 -109.89,-93.71 -30.96,-18.36 -117.14,-25.32 -150.62,-18.64 -10.34,2.06 -91.78,29.11 -92.39,38.27 -0.2,3.04 2.69,7.59 5.65,8.52 5.57,1.74 9.77,0.89 12.89,0.89z"/>
  </g>
 </g>
</svg>
