<?xml version="1.0" encoding="UTF-8"?>
<!DOCTYPE svg PUBLIC "-//W3C//DTD SVG 1.1//EN" "http://www.w3.org/Graphics/SVG/1.1/DTD/svg11.dtd">
<!-- Creator: CorelDRAW 2020 (64-Bit) -->
<svg xmlns="http://www.w3.org/2000/svg" xml:space="preserve" width="7.19761in" height="1.83893in" version="1.1" style="shape-rendering:geometricPrecision; text-rendering:geometricPrecision; image-rendering:optimizeQuality; fill-rule:evenodd; clip-rule:evenodd"
viewBox="0 0 5926.52 1514.17"
 xmlns:xlink="http://www.w3.org/1999/xlink"
 xmlns:xodm="http://www.corel.com/coreldraw/odm/2003">
 <defs>
  <style type="text/css">
   <![CDATA[
    .fil0 {fill:white}
   ]]>
  </style>
 </defs>
 <g id="Layer_x0020_1">
  <metadata id="CorelCorpID_0Corel-Layer"/>
  <g id="_3032746056864">
   <path class="fil0" d="M4564.38 932.2c35.06,0 40.6,-1.65 72.49,8.23 5.91,1.83 11.9,1.76 11.9,8.28l0 97.24c0,7.28 -22.03,18.9 -32.83,20.38 -33.54,4.6 -73.86,-0.49 -105.22,-7.07 -6.45,-1.36 -33.57,-8.93 -36.58,-11.12 -5.07,-3.69 -5,-9.74 -7.73,-16.12 -10.95,-25.54 -15.23,-22.35 -5.47,-54.67 1.48,-4.92 13.71,-27.55 19.27,-30.27 13.18,-6.46 68.44,-14.88 84.18,-14.88zm-775.98 -159.63c0,-30.82 5.84,-18.63 15.81,-35.56 10.65,-18.08 6.33,-29.09 33.16,-40.23 6.77,-2.81 12.46,-3.51 18.18,-7.5 7.11,-4.95 5.15,-7.42 15.08,-10.6 15.28,-4.9 43.23,-3.88 59.25,-1.73 11.42,1.53 8.36,2.35 15.48,8.37 7.77,6.57 21.6,10.89 31.8,14.06 14.99,4.64 8.57,1.89 18.77,27.1 14.26,35.27 18.11,3.52 18.11,46.1 0,8.59 -7.84,6.9 -16.15,7.7 -26.26,2.56 -165.72,2.62 -191.5,-0.02 -8.16,-0.83 -18,0.73 -18,-7.68zm-438.44 38.53l3.04 -94.21c1.35,-9.85 0.1,-10.39 6.53,-15.49 17.78,-14.09 58.74,-16.91 82.16,-16.91 15,0 66.99,12.84 106.4,12.84 9.99,0 15.14,-2.95 23.85,-3.67 8.66,16.38 -1,31.82 -8.44,44.77 -7.18,12.51 -6.79,25.22 -9.15,42.22 -3.27,23.56 -4.42,70.08 -4.42,96.48 0,34.87 2.98,96.42 11.78,122.16 3.53,10.32 8.87,10.83 11.63,21.39 5.82,22.25 4.69,30.94 20.23,47.65 11.27,12.11 6.63,27.38 25.34,42.54 10.62,8.6 7.39,20.03 22.79,28.58 7.65,4.26 3.43,0.27 7.95,8.57 7.34,13.5 19.45,13.07 26.95,24.42 2.85,4.31 3.05,5.22 8.42,8.1 4.46,2.39 6.98,2.86 11.33,5.18 10.83,5.78 18.79,16.27 29.76,21.61 11.73,5.7 24.89,6.33 36.17,15.2 20.34,15.98 74.61,12.79 98.36,20.88 19.94,6.8 99.14,9.16 125.16,5.43l41.32 -8.21c6.12,-0.71 10.9,-0.39 17.08,-1.26 9.54,-1.35 21.19,-2.6 30.4,-2.62 11.41,-0.03 21.83,-2.15 31.52,-3.34 10.38,-1.26 19.63,-1.86 28.72,-4.3 4.59,-1.23 7.45,-2.1 11.74,-4.78 24.52,-15.32 13.65,-5.97 35.55,-15.82 27.97,-12.57 11.58,-55.32 7.58,-75.89 -2.88,-14.77 -8.13,-27.77 -10.02,-43.19 -4.46,-36.33 -2.79,-61.86 -44.55,-61.86 -7.55,0 -23.45,4.39 -29.89,6.8 -10.97,4.11 -13.77,10.87 -25.57,12.95 -38.63,6.8 -161.89,11.11 -198.87,-0.22 -12.94,-3.96 -18.94,-15.68 -33.94,-21.1 -11.82,-4.27 -8.52,-2.52 -16.68,-10.84 -6.03,-6.14 -9.49,-6.82 -15.61,-11.9 -7.96,-6.61 -5.81,-8.31 -10.18,-17.34 -3.45,-7.12 -8.27,-9.46 -14.13,-13.39 0,-9.3 -2.01,-21.33 0,-25.68 4.88,-4.95 337.27,-5.28 366.91,-3.68 8.24,0.44 10.16,1.89 20.15,1.95l49.55 -1.94c10.35,0 3.69,20.4 3.6,29.28l-0 34.93c6.55,122.41 16.81,79.95 30.1,120.43 7.33,22.35 18.29,29.57 32.79,44.27 9.42,9.54 21.08,15.07 31.84,23.19 26.16,19.75 -0.56,5.59 37.7,19.17 23.19,8.23 15.87,19.92 91.45,22.29l104.56 3.67c55.46,0 108.09,-2.69 161.45,-5.49 8.2,-0.43 8.76,-1.84 18.27,-1.9 45.34,-0.32 52.02,-12.18 87.35,-19.05 42.64,-8.3 37.46,-18.56 37.46,-89.13l-1.83 -121.09c0,-89.42 2.97,-207.15 -1.78,-293.61 -1.08,-19.53 -3.86,-34.42 -10.82,-51.57 -2.58,-6.37 -5.21,-7.93 -8.11,-13.91 -7.82,-16.1 -8.23,-28.8 -19.14,-43.24 -3.55,-4.7 -5.6,-8.03 -8.95,-13.06 -15.54,-23.35 -20.13,-20.07 -29,-33.37 -6.38,-9.58 -13.89,-12.94 -24.3,-17.9 -34.06,-16.22 -10.74,-14.67 -57.2,-27.19 -9.3,-2.51 -6.86,-2.66 -14.19,-7.82 -27.84,-19.63 -155.63,-13.76 -198.95,-13.94l-83.61 4.44c-31.21,4.5 -42.86,14 -69.4,18.66 -52.26,9.17 -24.78,57.39 -24.83,107.15 -0.08,77.3 18.39,82.47 84.27,73.39 45.48,-6.27 23.42,-18.28 133.98,-18.28 49.05,0 44.05,12.57 84.7,25.37l8.67 4.17c4.76,4.98 10.74,26.75 14.91,34.62l4.68 6.32c0.24,0.29 0.63,0.68 0.86,0.98 6.43,8.48 2.56,21.45 1.74,31.29 -16.49,3.84 -38,3.44 -58.61,1.74 -38.26,-3.15 -80.54,-2.54 -119.65,1.62 -28.27,3.01 -59.92,-0.85 -86.76,10.47 -13.68,5.76 -16.69,12.86 -31.75,17.78 -13.57,4.44 -19.15,13.07 -30.36,19.17 -19.97,10.87 -20.86,11.77 -35.28,28.93 -7.24,8.62 -8.96,6.23 -15.62,17.4 -4.3,7.22 -8.6,12.33 -10.89,22.13 -11.34,-3.03 -12.99,-18.07 -12.87,-33 0.14,-16.69 -1.34,-27.79 -1.75,-44.11 -0.3,-11.92 -3.44,-28.95 -6,-39.87l-8.58 -39.12c-2.3,-11.45 -4.16,-28.98 -7.2,-38.66 -5.34,-16.96 -12.18,-10.7 -15.78,-30.09 -6.89,-37.13 -6.42,-25.48 -20.1,-42.28 -1.77,-2.17 -1.88,-2.59 -2.87,-4.48 -1.46,-2.79 -1.89,-4.63 -3.45,-7.56 -4.62,-8.67 -23.06,-26.6 -34.45,-40.77 -2.9,-3.6 -0.44,-0.77 -2.64,-2.87l-24.24 -21.62c-9.57,-8.07 -19.78,-12.31 -30.4,-17.3 -5.68,-2.68 -7.53,-6.96 -13.04,-10.81 -6.9,-4.83 -23.61,-9.85 -33.17,-12.7 -25.07,-7.48 -7.23,-22.08 -117.35,-22.08 -30.78,0 -64.24,-1.49 -94.37,2.85 -19.45,2.8 -27.48,5.63 -43.55,15.15 -6.15,3.64 -12.47,4.96 -20.58,6.94 -10.68,2.61 -12.96,3.56 -20.95,8.4l-17.09 12.26c-6.83,3.55 -14.21,4.63 -21.21,8.14l-68.21 62.04c-7.36,8.84 -13.51,25.63 -15.9,28.14 -5.69,5.96 -10.22,2.15 -16.17,13.18 -4.26,7.91 -3.54,14.06 -10.32,19.03 -3.6,-15.48 -3.67,-20.07 -3.67,-36.7 0,-50.58 36.95,-85.57 7.38,-108.29l-21.99 -16.54c-28.79,-22.35 -272.26,-17.46 -309.29,-4.63 -6.58,2.28 -11.57,5.96 -17.31,8.38 -27.13,11.48 -46.23,4.41 -80.32,24.25 -30.14,17.55 -25.63,-4.91 -39.16,39.73 -6.37,21.04 -1.96,53.58 -4.78,74.11 -2.82,20.54 -0.5,386.37 -0.5,417.83 0,33.33 1.5,71.67 -2.89,101.69 -3.81,26.04 -6.46,23.51 7.56,38.58 6.59,7.09 3.61,10.1 8.65,17.04 3.61,4.97 9.19,9.84 15.64,11.88 15.34,4.87 55.92,1.36 75.66,1.38 24.66,0.04 48.91,5.13 76.22,1.13 19.86,-2.91 29.58,0.35 38.15,-15.06 11.39,-20.5 6.65,-67.46 6.65,-97.93 0,-36.13 -2.74,-185.18 0.77,-208.39 2.21,-14.6 2.57,-34.48 0.29,-49.54 -2.44,-16.13 -1.06,-35.07 -1.06,-52.15z"/>
   <path class="fil0" d="M5050.52 1234.93c125.52,0 94.2,-6.38 99,-167.02l1.89 -58.65c0,-64.97 -2.87,-214.2 1.74,-269.81 2.37,-28.58 -7.37,-39.73 14.49,-46.06 17.15,-4.96 32.87,-7.38 51.64,-5.25 10.16,1.15 16.4,3.02 26.49,4.75 12.7,2.16 11.99,2.84 22.31,7.04 15.28,6.22 15.15,15.58 23.48,37.07 4.42,11.42 9.5,10.91 12.69,18.5 12.68,30.13 6.69,140.99 6.77,178.54l1.86 108.28c0.13,22.53 -3.94,57.93 -1.76,84.28 3.07,37.08 -0.09,17.17 -0.09,40.46 0,44.22 3.66,66.05 40.36,66.05l146.75 0c23.82,0 40.36,-22.94 40.36,-44.04l0 -366.95c0,-42.69 -5.5,-76.2 -5.5,-119.26 11.33,-2.64 6.06,-5.57 31.65,-10.55 6.64,-1.29 11.42,-2.59 16.5,-3.67 23.77,-5.06 22.29,-6.84 52.97,2.98l31.59 10.6c12.02,5.75 12.4,29.97 20.13,44.08 9.81,17.9 11.98,27.92 12.18,52.03l1.86 387.11c-0.13,29.52 6.3,47.66 38.57,47.66l150.43 0c17.83,0 23.93,-11.05 29.69,-23.52 9.28,-20.1 7.09,-64.47 7.06,-88.47 -0.02,-12.63 -1.91,-21.8 -1.9,-36.63 0.02,-37.81 5.25,-165.41 1.34,-193.98 -3.76,-27.42 2.29,-63.43 -1.84,-93.58 -1.67,-12.24 -2.29,-28.65 -3.28,-42.58 -0.63,-8.83 -4.83,-24.52 -5.39,-42.32 -0.47,-15.01 -2.71,-28.19 -4.71,-43 -5.88,-43.46 -11.45,-21.06 -21.28,-48.43 -1.87,-5.21 -4.53,-11.76 -6.99,-16.87 -11.94,-24.75 -9.38,-3.1 -19.68,-28.02 -8.17,-19.74 -13.02,-9.57 -22.65,-25.04 -7.93,-12.73 -19.01,-9.45 -28.87,-18.84 -26.6,-25.35 -31.62,-15.46 -45.52,-24.19 -6.04,-3.8 -5.4,-5.84 -14.11,-9.74 -25.85,-11.58 -102.27,-9.71 -137.05,-9.71 -33.61,0 -72.38,1.71 -94.16,14.08 -7.06,4.01 -9.27,6.72 -18.51,9.01 -10.14,2.52 -13.5,2.97 -21.57,5.94 -8.23,3.04 -11.83,4.01 -17.46,10.06 -4.28,4.6 -1.45,6.46 -18.09,9.44 -8.93,1.6 -16.16,3.14 -23.2,1.5 -25.34,-5.91 -15.06,-1.8 -26.61,-13.87 -3.07,-3.21 -4.23,-4.17 -8.41,-6.27 -5.24,-2.63 -15.3,-5.84 -20.11,-7.4 -11.17,-3.61 -9.57,-4.85 -17.65,-9.87 -28.9,-17.94 -143.5,-12.74 -185.57,-12.68 -12.41,0.02 -20.36,1.95 -34.79,1.9 -95.65,-0.34 -85.89,14.31 -125,19.92 -20.84,2.99 -45.8,3.77 -58.04,15.34 -27.13,25.67 -18.9,17.16 -23.49,48.07 -2.41,16.28 -0.77,248.01 -0.77,290.96 0,45.12 0.6,63.36 -1.82,108.26 -0.58,10.79 -3.12,20.84 -1.58,34.58l3.47 69.93c0.05,37.87 -6.19,113.82 7.29,137.65 16.34,28.88 67.23,17.55 88.06,18.26 13.25,0.45 11.59,1.94 34.84,1.94z"/>
   <path class="fil0" d="M1908.06 541.39c0,16.44 1.81,34.09 3.99,49.21 2.11,14.62 3.19,31.91 7.61,45.59 4.76,14.71 14.62,18.92 18.83,34.37 8.47,31.01 4.99,19.28 20.16,33.05 4.82,4.38 4.81,9.4 10.34,15.34 4.59,4.95 10.93,9.04 14.28,13.24 5.02,6.28 3.82,8.59 11.99,13.69 9.7,6.06 10.75,1.08 17.07,10.45 8.13,12.06 19.93,13.52 29.2,24 12.02,13.56 30.23,13.48 48.58,19.3 10.65,3.37 15.03,9.81 25.96,14.4 9.89,4.15 33.08,9.24 39.14,14.06 17.01,13.56 40.78,14.44 61.46,19.26 12.1,2.82 9.78,3.6 18.23,9.28 10.78,7.24 23.62,11.05 37.17,16.04 11.7,4.31 4.95,6.08 13.84,11.85 5.54,3.59 12.9,4.53 19.64,7.87 12.52,6.2 19.27,15.77 26.79,26.42 4.57,6.46 5.8,11.29 10.89,16.63 13.72,14.36 10.6,15.79 10.6,35.27 0,25.38 -7,23.04 -16.03,33.5 -14.26,16.52 -0.03,12.02 -24.99,24.55 -10.14,5.09 -20.55,15.38 -31.25,18.29 -31.51,8.57 -128.38,5.21 -161.81,-0.01 -13.82,-2.16 -11.21,-3.07 -20.51,-8.85 -5.47,-3.4 -16.73,-6.9 -22.86,-8.33 -15.46,-3.59 -34.49,-5.48 -47.36,-13.18 -15.9,-9.53 -64,-23.73 -79.36,-8.01 -6.96,7.13 -8.81,19.11 -10.91,31.29 -3.07,17.79 -14.87,26.13 -19.98,42.4 -1.85,5.88 -1.88,10.86 -4.63,17.39 -12.88,30.6 -20.38,21.52 -17.14,61.81 1.24,15.44 7.36,18.4 18.34,23.86 12.82,6.37 14.8,5.24 26.12,16.08 8.12,7.77 17.43,8.92 29.45,10.91 38.2,6.32 18.54,20.78 102.24,24.35 32.04,1.36 51.12,8.68 71.82,10.74l58.57 3.92c8.67,0.71 12.46,-1.4 20.01,-1.81 29.84,-1.62 50.87,0.64 78.13,-4.42l35.78 -6.42c13.09,-1.5 24.35,-2.6 37.81,-4.38 48.27,-6.38 30.23,-10.86 60.85,-21.7 46.01,-16.3 24.49,-16.35 39.43,-22.94 22.1,-9.75 18.66,-11.04 37.05,-25.33 26.51,-20.59 27.06,-37.41 38,-46.39 13.48,-11.07 15.4,-23.55 24.85,-37.53 9.88,-14.61 10.43,-34.35 12.66,-51.56 4.21,-32.58 6,-100 1.83,-131.1 -2.76,-20.61 -0.05,-49.59 -15.57,-65.15 -11.29,-11.32 -9.4,-30.49 -25.33,-42.56 -10.7,-8.11 -15.42,-19.58 -25.42,-27.78 -5.41,-4.43 -2.81,-1.76 -7.12,-7.56 -6.55,-8.81 -12.28,-13.88 -21.67,-18.69 -11.56,-5.91 -16.93,-4.47 -25.19,-15.17 -8.77,-11.35 -20.86,-11.06 -32.53,-22.51 -14.66,-14.39 -44.05,-10.57 -58.95,-21.77 -6.01,-4.52 -7.37,-7.97 -15.91,-11.61 -12.54,-5.33 -26.1,-8.52 -36.74,-16.46 -6.14,-4.58 -9.83,-6.89 -18.62,-8.9 -13.56,-3.1 -34.93,-4.71 -45.39,-9.65 -15.04,-7.09 -11.55,-10.2 -35,-18.2 -7.52,-2.56 -12.42,-4.98 -18.43,-9.09 -6.7,-4.58 -8.65,-9.27 -15.12,-12.4 -7.26,-3.51 -11.96,-2.29 -17.63,-8.05 -5.06,-5.14 -5.87,-11.4 -11.07,-16.45 -10.99,-10.67 -14.08,-7.96 -14.08,-40.97 0,-13.98 2.01,-21.08 9.39,-30.97 3.88,-5.19 3.1,-6.81 8.43,-11.75 8.31,-7.69 32.74,-14.94 44.5,-19.71 20.78,-8.44 93.16,-8.29 114.03,-3.87 22.35,4.74 44.54,13.59 67.72,16.67 7.14,0.95 28.34,4.64 33.28,7.08 12.32,6.08 8.06,12.8 27.41,14.8 17.8,1.84 20.86,3.01 29.71,-8.35 6.84,-8.79 9.41,-18.35 15.61,-26.59 15.61,-20.78 14.09,-39.31 26.25,-56.31 6.42,-8.96 8.42,-18.62 10.94,-31.26 1.78,-8.94 5.31,-26.93 5.31,-36.89 0,-19.31 -28.57,-37.65 -44.35,-41.88 -11.38,-3.05 -23.89,-3.57 -33.98,-8.2 -30.98,-14.22 -26.96,-15.08 -66.07,-20.15 -46.46,-6.02 -12.36,-17.83 -141.77,-17.83 -100.12,0 -75.7,11.22 -103.19,16.05 -12.7,2.24 -23.21,3.44 -34.61,5.75 -28.07,5.7 -26.1,14.7 -40.06,18.65 -17.21,4.87 -29.2,5.1 -41.66,18.88 -8.54,9.44 7.18,-6.59 -1.71,1.95 -7.62,7.32 -12.85,0.29 -43.42,31.8l-24.12 25.42c-1.44,1.42 -3.98,4.31 -5.21,5.8 -11.08,13.46 -18.03,18.74 -22.67,37.87 -9.67,39.91 -21.99,20.35 -28.19,92.9 -1.02,11.98 -3.72,24.73 -3.72,36.64z"/>
   <path class="fil0" d="M2607 919.35c0,16.86 0.75,44.72 7.68,60.21 1.89,4.2 1.82,2.41 3.61,7.4 2.49,6.9 5.17,76.42 15.09,98.66 2.92,6.56 3.72,5.09 7.26,11.09 2.85,4.82 4.13,8.41 6.05,14.13 3.16,9.43 5.38,20.93 11.17,27.35 14.78,16.39 8.8,12.41 16.55,21.98 17.49,21.6 36.02,43.27 61.69,52.05 17.11,5.85 12.27,9.65 23.15,15.37 7.88,4.15 51.81,12.2 64.26,12.79 23.37,1.11 33.82,9.23 67.82,9.23 58.99,0 36.41,0.2 86.13,-5.6 6.74,-0.78 8.4,-2.09 13.45,-3.06 37.22,-7.14 82.5,-2.34 104.55,-27.54 12.92,-14.76 10.09,-31.83 7.38,-52.42 -3.25,-24.68 -2.17,-65.72 -10.77,-88.31 -4.6,-12.1 -24.91,-31.65 -32.7,-33.34 -5.46,-1.19 -14.25,5.97 -23.84,7.71 -33.32,6.04 -101.92,9.96 -135.81,3.35 -11.47,-2.23 -13.77,-1.69 -18.15,-7.53 -31.02,-41.34 -9.61,14.36 -32.7,-70.04 -8.7,-31.82 -6.28,-206.81 -3.28,-249.69 1.22,-17.45 1.19,-22.3 17.45,-26.58 34.8,-9.16 184.21,13.17 206.58,-13.56 5.09,-6.09 10.67,-22.18 10.67,-33.36l0 -111.92c0,-25.87 -22.11,-26.8 -32.65,-29.73 -3.78,-1.05 -7.04,-2.53 -11.61,-3.06 -27.55,-3.24 -23.79,-1.4 -45.62,-0.22l-124.63 -3.81c-7.49,-0.98 -13.61,-8.08 -18.17,-13.02 -4.58,-4.97 -3.95,-3.47 -4.13,-12.39l-1.67 -110.25c-0.41,-7.83 -5.05,-48.66 -8.91,-55.3 -12.42,-21.35 -60.77,-11.32 -77.72,-7.49 -7.85,1.78 -12.96,3.18 -19.43,6.25 -40.66,19.35 -96.93,-5.57 -115.12,38.99 -4.42,10.82 -7,10.78 -7.99,17.68 -3.54,24.64 6.92,109.89 1.2,151.65 -5.8,42.33 2.56,235 -3.07,303.34l-3.84 73.22c-0.1,8.52 0.07,17.21 0.07,25.76z"/>
   <path class="fil0" d="M301.07 924.85c48.26,0 96.64,-0.78 144.93,1.83 14.05,0.76 30.83,3.78 45.81,3.72 14.61,-0.06 37.52,-1.39 51.2,0.16l41.05 8.48c129.25,23.86 126.27,142.83 199.03,177.07 9.31,4.38 2.22,-1.19 7.45,5.39 14.3,17.99 14.12,11.92 43.94,20.27 10.24,2.87 18.66,19.76 81.14,19.76l440.27 0c16.59,0 31.16,-2.91 40.7,-10.67 2.83,-2.3 3.83,-3.83 6.57,-6.27 26.45,-23.48 8.47,-15.46 22.7,-28.67 16.27,-15.1 12.82,-30.16 19.34,-44.87 3.05,-6.88 7.92,-7.84 12.23,-15.28 6.26,-10.8 25.77,-61.89 -0.01,-74.69 -17.47,-8.67 -275.83,-4.86 -307,-4.86 -42.76,0 -173.68,2.25 -206.27,-2.86 -14.19,-2.22 -9.27,-2.4 -19.15,-6.54 -52.01,-21.8 -28.11,-2.9 -67.65,-35.09l-14.92 -10.76c-7.6,-6.04 -6.27,-6.55 -12.54,-13.14l-13.96 -13.56c-71.46,-79.12 -99.64,-117.11 -194.77,-142.8 -3.62,-1.62 -3.99,-2.28 -8.85,-3.99 -4.59,-1.61 -5.38,-1.69 -10.16,-2.68 -45.94,-9.62 -273.59,3.37 -313.44,-2.1l-70.71 -0c-21.1,2.97 -118.74,0.22 -153.68,0.42 -82.6,0.47 -64.7,74.94 -57.8,120.37 2.29,15.06 4.32,30.25 10.48,40.89 6.51,11.25 19.73,14.66 32.87,18.5 25.13,7.36 212.18,1.97 251.19,1.97z"/>
   <path class="fil0" d="M70.13 537.72l432.73 1.83c9.44,0 20.1,-0.47 29.38,-0.03 158.64,33.71 115.75,47.6 204.98,147.26 10.25,11.44 9.42,18.84 26.4,32.31 5.77,4.58 9.39,9.41 14.83,14.53 14.41,13.53 27.04,12.93 42.78,17.76 21.64,6.65 13.11,21.24 96.21,21.2l469.63 0c34.25,0 81.53,6.87 99.85,-17.56 19.99,-26.66 30.34,5.69 26.75,-87.04 -1.17,-30.11 -11.58,-31.74 -17.16,-41.54 -6.89,-12.09 -14.07,-27.34 -28.4,-32.14 -28.1,-9.4 -75.51,-5.2 -112.22,-5.2 -68.73,0 -379.03,2.6 -408.54,-2.38 -28.95,-4.89 -27.17,0.82 -44.1,-14.6 -6.62,-6.03 -11.03,-5.94 -19.92,-9.43 -14.06,-5.52 -23.18,-17.58 -33.7,-25.01 -9.64,-6.81 -8.45,-2.52 -15.84,-13.51 -7.66,-11.41 -13.17,-12.95 -27.15,-31.56 -58.93,-78.43 -160.07,-114.14 -251.93,-131.5 -6.86,-1.3 -16.24,-4.33 -24.4,-4.95l-56.8 -1.91c-43.09,0.01 -311.75,-2.16 -323.19,1.52 -7.73,2.49 -12.92,5.3 -21.7,7.66 -37.11,9.99 -129.69,168.64 -58.49,174.3z"/>
   <path class="fil0" d="M1145.35 1411.49c1.34,-1.36 51.87,-31.37 -1.72,-41.32 -93.66,-17.4 -159.6,16.32 -262.23,-29.45 -59.82,-26.7 -103.71,-116.38 -137.49,-156.05 -8.84,-7.9 -46,-30.61 -56.84,-33.06l-56.27 -9.78c-90.26,-18.08 -365.65,-6.99 -463.66,-5.99 -42.53,-0.24 -53.3,25.68 -46.67,37.35 82.96,146.01 319.12,316.87 477.94,331.29 122.39,19.45 436.31,19.14 546.94,-92.99z"/>
   <path class="fil0" d="M409.3 146.92c95.71,0 130.5,-8.17 216.41,31.24 88.03,40.38 109.32,152.77 180.86,180.56 21.24,8.26 14.96,11.79 45.58,18.63 12.69,2.83 26.35,2.28 38.27,3.92 28.69,3.94 56.93,-1.39 83.88,-1.33 113.12,0.26 226.27,0 339.38,0 29.68,0 80.4,5.28 77.7,-24.33 -0.68,-7.38 -1.2,-13 -2.89,-19.29 -24.83,-92.2 -238.79,-225.18 -321.81,-274.43 -90.68,-53.78 -343.04,-74.15 -441.1,-54.58 -30.26,6.05 -268.78,85.26 -270.56,112.07 -0.59,8.89 7.88,22.24 16.54,24.94 16.32,5.08 28.6,2.62 37.74,2.62z"/>
  </g>
 </g>
</svg>
